<svg xmlns="http://www.w3.org/2000/svg" xmlns:xlink="http://www.w3.org/1999/xlink" version="1.1" id="cameraSVG" x="0" y="0" viewBox="0 0 1800 1200" xml:space="preserve" enable-background="new 0 0 1800 1200">
<style>
.s0{
	fill:none;
	stroke-miterlimit:10;
	stroke-width:4;
	stroke:#000;
}

</style>  <path d="M1371.4 436.6c-12.4-33-22.7-48-32-57.3 -9.3-9.3-24.8-10.8-24.8-10.8s0.5-2.6-9.8-9.8c-10.3-7.2-20.1-6.6-39.2-5 -19.1 1.5-25.9 14.3-25.9 14.3s-7.5-1.2-19.2 2c-12.1 3.3-22.7 16.6-22.7 16.6l-47.9-0.2v-36.2h-138.9v35.5l-20.2-0.1c0 0-4-1.9-16.2-12.2 -14.1-11.8-20.9-25.9-40.5-66.4 -14-29.1-30.1-41.7-39.9-48.9 -17.2-12.5-37.2-14.5-58-15 -60.7-1.6-105.7 0.1-134.7 4.2 -29 4.2-48.7 36.2-70 63.9 -21.2 27.7-43.8 39.8-72 57.4 -28.1 17.6-57.4 24.5-70.4 29.2 -33.4 12.1-44.4 24.4-57.4 54.4 -10.3 23.7-5.2 48.5-5.2 96.5 0 48 0 198.2 0 267.9 0 55.7 0.3 67.1 17.6 84.4 17.5 17.5 25.8 19.3 81.6 19.3 54.7 0 346.9 0 468.7 0s245.2 1.4 297.9 0c54.4-1.4 59.1-8.7 73.3-23.9 11.7-12.5 12.3-26.2 12.3-68s0-263.3 0-297.3S1383.8 469.7 1371.4 436.6z" class="s0"/>
  <circle cx="1138.9" cy="519.6" r="26.2" class="s0"/>
  <circle cx="497.8" cy="519.6" r="19.8" class="s0"/>
  <circle cx="786.2" cy="381.7" r="19.8" class="s0"/>
  <circle cx="497.8" cy="610.5" r="19.8" class="s0"/>
  <circle cx="494" cy="780.9" r="13.9" class="s0"/>
  <circle cx="506.8" cy="841.7" r="13.9" class="s0"/>
  <circle cx="1236.1" cy="519.6" r="26.2" class="s0"/>
  <circle cx="1190" cy="729" r="26.2" class="s0"/>
  <circle cx="1190" cy="729" r="89.2" class="s0"/>
  <path d="M1269.7 453.2h-360V324.8c0-13-10.7-23.7-23.7-23.7H681.3c-13 0-23.7 10.7-23.7 23.7v128.4H503.2c-23.5 0-42.8 19.2-42.8 42.8v352.2c0 23.5 19.2 42.8 42.8 42.8h766.4c23.5 0 42.8-19.2 42.8-42.8V496C1312.4 472.4 1293.2 453.2 1269.7 453.2z" class="s0"/>
  <path d="M872.7 447.4H695.5c-5.6 0-10.2-4.6-10.2-10.2V334.8c0-5.6 4.6-10.2 10.2-10.2h177.2c5.6 0 10.2 4.6 10.2 10.2v102.5C883 442.8 878.4 447.4 872.7 447.4z" class="s0"/>
  <path d="M1038.7 872.9H564.8c-14.1 0-25.7-11.6-25.7-25.7V507.3c0-14.1 11.6-25.7 25.7-25.7h473.9c14.1 0 25.7 11.6 25.7 25.7v339.9C1064.4 861.3 1052.8 872.9 1038.7 872.9z" class="s0"/>
  <rect x="558.4" y="504.3" width="482.6" height="323.5" class="s0"/>
</svg>
